<svg aria-hidden="true" style="width:0;height:0;position:absolute;overflow:hidden" xmlns="http://www.w3.org/2000/svg"><defs><symbol id="icon-top" viewBox="0 0 32 32"><path fill="#101010" style="fill:var(--color1,#101010)" d="M32 16c0 8.837-7.163 16-16 16S0 24.837 0 16 7.163 0 16 0s16 7.163 16 16z"/><path fill="#fff" style="fill:var(--color2,#fff)" d="m22.537 17.636-5.669-5.706c-.067-.068-.141-.116-.219-.144a.747.747 0 0 0-.506 0 .58.58 0 0 0-.219.144l-5.686 5.706c-.157.158-.236.356-.236.593s.084.44.253.61a.81.81 0 0 0 1.182 0l4.96-4.978 4.96 4.978c.158.158.351.237.582.237s.431-.085.599-.254c.169-.169.253-.367.253-.593s-.084-.423-.253-.593z"/></symbol><symbol id="icon-footer-phone" viewBox="0 0 23 32"><path fill="none" stroke="#4c4c4c" style="stroke:var(--color1,#4c4c4c)" stroke-linejoin="round" stroke-linecap="round" stroke-width="1.846" d="M18.052 1.231H4.924a3.281 3.281 0 0 0-3.282 3.282v22.974a3.281 3.281 0 0 0 3.282 3.282h13.128a3.281 3.281 0 0 0 3.282-3.282V4.513a3.281 3.281 0 0 0-3.282-3.282zM11.488 25.863v-.016"/></symbol><symbol id="icon-Vector1" viewBox="0 0 32 32"><path fill="#4c4c4c" style="fill:var(--color3,#4c4c4c)" d="M5.731 2.956c-.287.175-.138-.056-3.169 4.825-2.519 4.05-2.525 4.056-2.55 4.438-.013.306.006.419.125.6.081.125 3.538 3.831 7.688 8.231 5.387 5.712 7.606 8.019 7.744 8.069.256.087.606.087.863 0 .137-.05 2.356-2.356 7.744-8.069 4.15-4.4 7.606-8.106 7.688-8.231.119-.181.137-.294.125-.6-.025-.381-.031-.394-2.294-4.031-3.35-5.381-3.15-5.075-3.431-5.237l-.25-.138H5.97l-.237.144zM10 5.012c-.006.044-.281 1.444-.613 3.112l-.613 3.031-2.888.019-2.888.012.3-.481c.169-.269 1.044-1.675 1.944-3.131l1.644-2.638h1.556c1.206 0 1.556.019 1.556.075zm9.775.032c.056.188 1.288 5.994 1.288 6.069 0 .056-1.269.075-5.031.075-2.769 0-5.031-.019-5.031-.05-.006-.025.269-1.431.606-3.125l.613-3.075h3.762c3.525 0 3.762.006 3.794.106zm7.275 3 1.931 3.113-2.813.019c-1.55.006-2.825 0-2.844-.019-.044-.037-1.319-5.95-1.325-6.112 0-.1.113-.106 1.556-.106h1.556l1.938 3.106zM10.912 18.313l1.963 4.906-.369-.375c-.356-.369-8.45-8.969-8.75-9.3l-.156-.169 2.675.012 2.675.019 1.962 4.906zm9.813-4.832c-.331.887-4.694 11.644-4.719 11.644s-1.1-2.644-2.394-5.875l-2.35-5.875h4.75c4.5 0 4.75.006 4.712.106zm7.518.063c-.313.35-8.4 8.938-8.725 9.269l-.337.344.131-.344c.269-.694 3.756-9.338 3.788-9.387.019-.025 1.219-.05 2.663-.05h2.631l-.15.169z"/></symbol><symbol id="icon-vector2" viewBox="0 0 32 32"><path fill="#4c4c4c" style="fill:var(--color3,#4c4c4c)" d="M14.956.094C13.731.313 12.85.782 11.7 1.813c-.813.738-1.769 1.119-2.8 1.125-.825 0-1.938.263-2.65.625-1.081.544-2.15 1.613-2.688 2.688-.362.713-.625 1.825-.625 2.65a4.057 4.057 0 0 1-.931 2.569C1.093 12.551.9 12.82.619 13.408c-.463.95-.581 1.5-.581 2.594 0 1.069.119 1.625.544 2.531.294.625.606 1.075 1.181 1.706.813.887 1.094 1.581 1.175 2.881.075 1.212.281 2 .725 2.813.562 1.019 1.556 1.981 2.587 2.506.706.363 1.825.625 2.65.625 1.031.006 2.006.394 2.806 1.125.644.587 1.063.887 1.575 1.15a5.89 5.89 0 0 0 3.737.569c1.225-.212 2.156-.694 3.206-1.656.9-.825 1.581-1.106 2.919-1.188 1.837-.119 3.094-.663 4.2-1.825 1.131-1.175 1.6-2.306 1.719-4.087.081-1.35.356-2.012 1.219-2.969.8-.881 1.25-1.675 1.519-2.675.137-.512.156-.731.156-1.506s-.019-.994-.156-1.506c-.281-1.037-.731-1.819-1.613-2.787-.731-.8-1.119-1.775-1.125-2.806 0-.912-.288-2.037-.725-2.825-.644-1.181-1.869-2.269-3.025-2.706-.656-.25-1.288-.375-2.169-.431-1.337-.081-2.019-.362-2.919-1.188-.775-.712-1.413-1.113-2.212-1.4-.938-.331-2.1-.431-3.056-.256zm1.887 1.875c.65.138 1.363.506 1.925 1.006.775.681 1.156.95 1.762 1.244.738.362 1.431.525 2.462.594.469.031.994.1 1.163.144a4.108 4.108 0 0 1 2.819 2.694c.113.369.175.731.212 1.356.069 1.063.231 1.731.625 2.525.319.644.469.856 1.212 1.7 1.462 1.669 1.462 3.856-.006 5.544-.744.85-.887 1.056-1.206 1.694-.394.794-.556 1.462-.625 2.525-.106 1.669-.675 2.731-1.869 3.519-.656.431-1.275.606-2.325.675-1.063.069-1.731.231-2.525.625-.644.319-.856.469-1.7 1.212-1.663 1.462-3.875 1.462-5.537 0-.844-.744-1.056-.894-1.7-1.212-.794-.394-1.463-.556-2.525-.625-.625-.038-.988-.1-1.356-.212a4.11 4.11 0 0 1-2.694-2.819c-.044-.169-.112-.694-.144-1.163-.069-1.063-.237-1.731-.625-2.525-.319-.644-.469-.856-1.212-1.7-1.462-1.663-1.462-3.869 0-5.544.706-.806.956-1.162 1.244-1.756.362-.744.525-1.431.594-2.463.081-1.206.244-1.731.775-2.469.787-1.106 1.813-1.625 3.419-1.725 1.775-.112 2.713-.519 4.219-1.837 1.056-.925 2.331-1.275 3.619-1.006z"/><path fill="#4c4c4c" style="fill:var(--color3,#4c4c4c)" d="M15.093 6.606c-2.95.35-5.388 1.825-6.963 4.213a9.51 9.51 0 0 0-1.419 3.525c-.162.863-.162 2.45 0 3.313a9.473 9.473 0 0 0 7.631 7.631c.863.163 2.45.163 3.313 0a9.473 9.473 0 0 0 7.631-7.631c.163-.863.163-2.45 0-3.313-.756-4.063-3.969-7.138-8.038-7.688-.6-.081-1.688-.106-2.156-.05zm2.031 1.919a7.586 7.586 0 0 1 5.606 4.069c.6 1.188.794 2.044.794 3.406 0 1.05-.094 1.656-.381 2.469-.919 2.556-2.988 4.369-5.656 4.944-.725.163-2.256.156-2.988 0a7.846 7.846 0 0 1-4.594-2.944c-.644-.856-1.206-2.219-1.375-3.325-.556-3.669 1.594-7.144 5.163-8.338 1.05-.35 2.287-.45 3.431-.281z"/><path fill="#4c4c4c" style="fill:var(--color3,#4c4c4c)" d="M17.125 15.031 14.656 17.5l-2.312-2.313-1.313 1.313 3.656 3.656 3.125-3.125c1.719-1.719 3.125-3.156 3.125-3.187 0-.081-1.2-1.281-1.281-1.281-.037 0-1.175 1.113-2.531 2.469z"/></symbol><symbol id="icon-vector3" viewBox="0 0 32 32"><path fill="#4c4c4c" style="fill:var(--color3,#4c4c4c)" d="M14.187.093c-.838.106-.963.144-1.244.35-.325.231-.406.4-.938 1.9-.244.681-.45 1.244-.456 1.25-.012.006-.281.112-.6.244l-.581.238-.637-.294c-2.081-.975-1.987-.938-2.388-.931-.463 0-.638.087-1.406.7a17.961 17.961 0 0 0-2.388 2.388c-.556.7-.669.906-.719 1.306-.038.344.094.7.825 2.231l.425.888-.244.581c-.131.325-.237.594-.244.606-.006.006-.569.213-1.25.456-.681.238-1.344.494-1.475.556-.25.131-.506.419-.613.706-.237.625-.331 3.169-.163 4.525.106.844.156 1.019.381 1.319.206.269.431.375 1.881.887.675.238 1.231.444 1.237.45.006.012.087.212.181.456.1.238.2.506.238.594.056.137-.013.319-.5 1.344-.306.65-.594 1.294-.638 1.431-.087.281-.05.7.1.994.456.875 2.6 3.038 3.719 3.744.237.15.744.206 1.031.113.138-.044.781-.331 1.431-.637 1.025-.488 1.206-.556 1.344-.5.088.038.356.137.594.238.244.094.444.175.456.181.006.006.213.563.45 1.238.512 1.45.619 1.675.887 1.881.3.225.456.269 1.281.381 1.331.175 3.925.081 4.569-.163.281-.106.569-.363.7-.613.063-.131.319-.794.556-1.475.244-.681.45-1.244.456-1.25.012-.006.219-.087.456-.181.244-.1.506-.2.594-.238.137-.056.319.012 1.344.5.656.306 1.294.594 1.431.637.288.094.794.038 1.031-.113 1.119-.706 3.262-2.869 3.719-3.744.15-.294.188-.712.1-.994-.044-.137-.331-.781-.637-1.431-.488-1.025-.556-1.206-.5-1.344.038-.087.137-.356.238-.594.094-.244.175-.444.181-.456.006-.006.563-.212 1.238-.45 1.45-.512 1.675-.619 1.881-.887.225-.3.275-.475.381-1.319.119-.975.119-2.619 0-3.6-.181-1.45-.194-1.463-2.5-2.281l-1.006-.356-.181-.475a34.04 34.04 0 0 1-.238-.606c-.044-.1.075-.406.506-1.319.306-.656.594-1.294.637-1.431.087-.281.05-.7-.1-.994-.331-.644-1.9-2.331-2.962-3.181-.769-.613-.944-.7-1.406-.7-.4-.006-.306-.044-2.387.931l-.637.294-.581-.237c-.319-.131-.587-.237-.6-.244a63.832 63.832 0 0 1-.456-1.25 26.138 26.138 0 0 0-.556-1.475 1.437 1.437 0 0 0-.7-.613c-.619-.231-3.275-.331-4.55-.163zm2.594 2.719h.394l.456 1.294c.581 1.644.637 1.719 1.65 2.081.381.131.969.375 1.313.537.55.263.675.3 1.031.3.381 0 .475-.031 1.613-.575l1.212-.575.431.381c.238.213.619.588.837.838l.406.456-.575 1.206c-.544 1.144-.575 1.238-.575 1.619 0 .356.038.481.313 1.063.175.363.413.938.531 1.281.175.512.262.675.494.912.262.262.369.313 1.581.738l1.294.456.012.481c.012.463-.012 1.837-.038 1.863-.006.006-.6.225-1.325.481-1.594.575-1.681.644-2.025 1.637-.119.344-.35.913-.525 1.275-.275.581-.313.706-.313 1.063 0 .381.031.475.575 1.619l.581 1.212-.175.194c-.431.481-.825.881-1.15 1.169l-.356.306-1.206-.575c-1.15-.544-1.231-.575-1.619-.575-.356.006-.488.044-1.063.313-.363.175-.938.413-1.281.531-.512.175-.675.262-.913.494-.262.262-.313.369-.738 1.569l-.456 1.288-.587.031c-.325.019-.85.019-1.175 0l-.588-.031-.456-1.288c-.425-1.2-.475-1.306-.738-1.569-.238-.231-.4-.319-.912-.494a14.297 14.297 0 0 1-1.281-.531c-.581-.275-.7-.313-1.063-.313-.381 0-.475.038-1.619.575l-1.206.575-.356-.306a14.864 14.864 0 0 1-1.15-1.169l-.175-.194.581-1.212c.544-1.144.575-1.238.575-1.619 0-.356-.037-.481-.313-1.063a14.228 14.228 0 0 1-.525-1.275c-.344-.994-.431-1.063-2.025-1.637a53.502 53.502 0 0 1-1.325-.481c-.025-.025-.05-1.4-.038-1.863l.013-.481 1.3-.456c1.206-.425 1.313-.475 1.575-.738.231-.238.319-.4.494-.912.119-.344.356-.919.531-1.281.275-.581.313-.706.313-1.063 0-.381-.031-.475-.575-1.619l-.575-1.206.406-.456c.219-.25.6-.625.838-.838l.431-.381 1.213.575c1.137.544 1.231.575 1.613.575.356.006.481-.031 1.031-.3.344-.162.938-.406 1.313-.544 1.006-.356 1.069-.431 1.65-2.069l.456-1.294.512-.025c.275-.013.631-.013.781 0 .15.006.45.019.663.019z"/><path fill="#4c4c4c" style="fill:var(--color3,#4c4c4c)" d="M14.693 9.444A6.358 6.358 0 0 0 9.718 14.6a6.378 6.378 0 0 0 3.431 6.775c.35.175.912.387 1.256.481.55.144.744.163 1.594.163s1.044-.019 1.594-.163c3.925-1.044 5.913-5.394 4.106-9.012a6.353 6.353 0 0 0-7.006-3.4zm2.15 2.775c.906.231 1.819.925 2.269 1.725.988 1.75.262 4.044-1.563 4.925-2.731 1.319-5.738-1.144-4.988-4.081.169-.656.431-1.106.969-1.637.694-.688 1.469-1.012 2.438-1.019.281-.006.675.037.875.088z"/></symbol><symbol id="icon-vector4" viewBox="0 0 32 32"><path fill="#4c4c4c" style="fill:var(--color3,#4c4c4c)" d="m14.875.038-.813.094c-1.944.219-4.175.938-5.881 1.9a15.443 15.443 0 0 0-3.494 2.656 15.953 15.953 0 0 0-4.594 9.375c-.125 1.012-.125 2.925 0 3.937.344 2.775 1.512 5.637 3.2 7.831.444.569.9.725 1.431.488.388-.175.556-.456.556-.925 0-.331-.025-.413-.206-.656-1.631-2.175-2.55-4.313-2.925-6.8-.131-.869-.15-2.694-.031-3.563.881-6.594 6.019-11.594 12.575-12.25.394-.044.781-.063.856-.05.106.013-.088.212-1 1.019-.713.631-1.162 1.075-1.213 1.2-.375.881.494 1.75 1.369 1.369.287-.125 4.331-3.737 4.456-3.981.131-.256.131-.725 0-.975-.163-.319-.431-.463-1.025-.556-.531-.087-2.831-.163-3.262-.113zM27.275 5.744c-.387.175-.556.456-.556.925 0 .331.025.412.206.656 2.575 3.425 3.538 7.213 2.825 11.163-.694 3.85-3.006 7.256-6.344 9.356-1.956 1.231-4.35 1.962-6.769 2.069l-.794.038 1.138-1.119c.625-.613 1.169-1.175 1.2-1.25.038-.075.069-.288.069-.469 0-.394-.15-.681-.45-.863-.275-.169-.825-.169-1.081-.006-.244.156-3.95 3.756-4.1 3.981-.175.262-.162.819.025 1.087.213.325.475.438 1.188.538 5.019.675 10-.981 13.519-4.5 2.35-2.356 3.863-5.294 4.469-8.706.188-1.05.237-3.344.094-4.519a16.274 16.274 0 0 0-3.15-7.8c-.506-.675-.925-.838-1.488-.581z"/><path fill="#4c4c4c" style="fill:var(--color3,#4c4c4c)" d="M10.156 9.506c-1.05.081-1.875.456-2.594 1.181-.775.775-1.094 1.606-1.05 2.794.013.525.044.662.15.813.456.619 1.281.619 1.737 0 .1-.131.131-.306.162-.844.031-.5.075-.731.175-.925.719-1.4 3.338-1.281 4.037.181.313.656.25 1.625-.144 2.194-.237.344-.919.963-1.944 1.763-2.231 1.738-3.169 2.7-3.906 4-.244.419-.281.544-.281.844 0 .413.156.694.5.894.213.125.319.131 3.75.15 2.456.012 3.631 0 3.856-.05.75-.163 1.063-1 .6-1.613-.294-.394-.25-.387-3.125-.387H9.473l.431-.444c.244-.244 1.056-.938 1.813-1.544 2.781-2.219 3.287-2.963 3.3-4.856.006-1.262-.313-2.075-1.144-2.912-.906-.919-2.213-1.356-3.719-1.237z"/><path fill="#4c4c4c" style="fill:var(--color3,#4c4c4c)" d="M22.581 9.5c-.106.025-.269.1-.35.162-.225.169-6.919 8.325-6.994 8.519-.094.244-.025.8.119.994.069.094.219.225.338.294.206.119.344.125 3.169.144l2.95.019v1.038c0 1.194.075 1.462.481 1.712.3.188.8.188 1.1 0 .406-.25.481-.519.481-1.706v-1.031l.469-.038c.538-.038.806-.163 1.012-.481.188-.275.2-.819.019-1.113-.206-.337-.462-.45-1.012-.45h-.488v-3.637c0-3.55 0-3.644-.131-3.9-.2-.419-.688-.637-1.163-.525zm-.787 8.044c-.012.012-.781.012-1.706.006l-1.688-.019 1.694-2.05 1.688-2.056.019 2.05c.006 1.125.006 2.056-.006 2.069z"/></symbol><symbol id="icon-map-logo" viewBox="0 0 26 32"><path fill="#101010" style="fill:var(--color1,#101010)" d="M19.942 31.304c0 .384-3.115.696-6.957.696s-6.957-.311-6.957-.696c0-.384 3.115-.696 6.957-.696s6.957.311 6.957.696z"/><path fill="#f57520" style="fill:var(--color2,#f57520)" d="m22.168 22.135-9.182 9.169-9.182-9.169A12.95 12.95 0 0 1 .989 8.004c.983-2.369 2.647-4.394 4.783-5.819a12.998 12.998 0 0 1 19.211 5.819 12.948 12.948 0 0 1-2.815 14.131z"/><path fill="#101010" style="fill:var(--color1,#101010)" d="m21.84 21.943-8.854 8.897-8.854-8.897c-1.751-1.76-2.944-4.002-3.427-6.442s-.235-4.971.713-7.27c.948-2.299 2.553-4.264 4.612-5.647a12.474 12.474 0 0 1 13.914 0 12.57 12.57 0 0 1 4.612 5.647c.948 2.299 1.196 4.829.713 7.27s-1.676 4.683-3.427 6.442z"/><path fill="#fff" style="fill:var(--color3,#fff)" d="M8.954 9.752c.006 0 .013-.002.018-.005s.011-.007.015-.012c.079-.109-.021-.142-.021-.142l-1.555.124a.046.046 0 0 1-.04-.016c-.005-.006-.009-.012-.01-.02s-.002-.015 0-.022c.027-.13.075-.254.141-.369.008-.015.02-.027.034-.035s.031-.013.047-.013a.095.095 0 0 1 .081.048v.128a.044.044 0 0 0 .006.025.119.119 0 0 0 .034.033c.007.003.014.005.021.005s.015-.002.021-.005a.049.049 0 0 0 .024-.036c.012-.102.015-.329-.197-.338-.286-.014-.36.527-.378.727a.067.067 0 0 0 .017.052.066.066 0 0 0 .051.021h.233c.006 0 .013.001.019.004s.011.006.015.011c.004.005.008.01.01.017s.003.013.002.019l-.109 1.175a.047.047 0 0 1-.043.042l-.326.019c-.007 0-.014-.001-.02-.004s-.012-.007-.017-.012c-.005-.005-.008-.011-.01-.018s-.002-.014-.001-.021c.011-.056.018-.114.02-.171 0-.058-.051-.079-.077-.095-.004-.002-.008-.004-.012-.004s-.009 0-.013.002-.008.004-.01.008-.005.007-.005.012l-.129.619c-.002.007-.002.015 0 .022s.006.014.011.019a.09.09 0 0 0 .057.027c.01.001.021-.002.029-.007s.015-.014.019-.024l.053-.152c.003-.008.008-.016.015-.021s.015-.009.024-.01l.388-.039c.007-.001.014 0 .021.003s.013.007.017.012l.831.914c.004.005.01.009.015.011s.012.004.019.004h.031c.01 0 .019-.003.027-.009s.014-.014.017-.023l.394-1.171a.044.044 0 0 0-.008-.044L7.838 9.92c-.004-.005-.007-.01-.009-.016s-.002-.012-.002-.019v-.011c.001-.011.006-.02.014-.028s.018-.012.028-.012l1.084-.082zm-.41 1.514-.253.696c-.003.007-.007.014-.013.019s-.013.009-.021.01a.044.044 0 0 1-.043-.014l-.561-.609c-.006-.006-.009-.014-.011-.022s-.001-.017.002-.024c.003-.008.008-.015.014-.02s.014-.009.022-.01l.811-.131c.006-.001.013 0 .019.002s.012.005.016.009c.005.004.009.009.011.015s.004.012.004.018v.044a.045.045 0 0 1 .003.016zm-.079-.279-.829.131c-.007.001-.014 0-.02-.002s-.012-.006-.017-.011c-.005-.005-.009-.011-.011-.017s-.003-.013-.002-.02l.101-.965a.046.046 0 0 1 .055-.036.045.045 0 0 1 .021.012l.728.833c.005.006.009.014.01.022s.001.016-.002.024-.008.015-.014.02-.014.009-.022.01z"/><path fill="#f57520" style="fill:var(--color2,#f57520)" d="m17.586 16.947.349-.93-.792-.58h1.013l.324-.921.264.938h.971l-.818.546.247.947-.716-.538z"/><path fill="#fff" style="fill:var(--color3,#fff)" d="M13.409 18.501h1.017l2.829-9.815h-1.017l-2.829 9.815zM14.906 18.501l.314-.981h3.631c.094 0 .184 0 .27-.002.475-.027.91-.287 1.245-.629a1.902 1.902 0 0 0-.007-2.67 1.1 1.1 0 0 0-.621-.308 4.588 4.588 0 0 0-.635-.038H16.181l.277-.889h1.405c.251 0 .399.003.528.005.214.004.374.007.858-.005.254-.006.422-.014.571-.054a1.778 1.778 0 0 0 1.154-1.668c0-.47-.179-.981-.509-1.315s-.774-.385-1.242-.389h-1.748l.203-.87h1.257l.251-.002a4.21 4.21 0 0 1 .71.039.898.898 0 0 1 .137.027c.421.074.809.228 1.124.547.51.516.789 1.236.792 1.963a2.773 2.773 0 0 1-.792 1.93 1.56 1.56 0 0 1-.203.174c.048.036.094.077.139.123.545.551.852 1.294.856 2.07a2.963 2.963 0 0 1-.845 2.06 2.873 2.873 0 0 1-1.235.741c-.26.091-.557.144-.896.144h-4.068zM4.127 8.687h.998l2.385 8.278-.37 1.537-3.014-9.815zM7.529 18.501h.98l2.071-8.037 2.367 8.037.481-1.574-2.478-8.241h-.924L7.53 18.501z"/></symbol><symbol id="icon-video" viewBox="0 0 32 32"><path fill="#f57520" style="fill:var(--color4,#f57520)" d="M24.225 15.306a.955.955 0 0 1 0 1.653L12.012 24.03a.955.955 0 0 1-1.434-.827V9.062a.956.956 0 0 1 1.434-.827l12.213 7.07z"/><path fill="none" stroke="#f57520" style="stroke:var(--color4,#f57520)" stroke-width=".478" d="M31.761 16c0 8.705-7.057 15.761-15.761 15.761S.239 24.704.239 16C.239 7.295 7.296.239 16 .239S31.761 7.296 31.761 16z"/></symbol><symbol id="icon-tel" viewBox="0 0 32 32"><path fill="none" stroke="#f57520" style="stroke:var(--color4,#f57520)" stroke-linejoin="round" stroke-linecap="round" stroke-width="1.846" d="M22.564 1.231H9.436a3.281 3.281 0 0 0-3.282 3.282v22.974a3.281 3.281 0 0 0 3.282 3.282h13.128a3.281 3.281 0 0 0 3.282-3.282V4.513a3.281 3.281 0 0 0-3.282-3.282zM16 25.863v-.016"/></symbol><symbol id="icon-cart" viewBox="0 0 34 32"><path fill="none" stroke="#fff" style="stroke:var(--color2,#fff)" stroke-linejoin="round" stroke-linecap="round" stroke-width="2.4" d="M25.6 24H8.8L5.6 1.6h-4"/><path fill="none" stroke="#fff" style="stroke:var(--color2,#fff)" stroke-linejoin="round" stroke-linecap="round" stroke-width="2.4" d="M6.058 4.8h25.943l-4.8 14.4H8.115M12.8 30.4a3.2 3.2 0 1 0 0-6.4 3.2 3.2 0 0 0 0 6.4zM25.6 30.4a3.2 3.2 0 1 0 0-6.4 3.2 3.2 0 0 0 0 6.4z"/></symbol><symbol id="icon-heart" viewBox="0 0 36 32"><path fill="none" stroke="#fff" style="stroke:var(--color2,#fff)" stroke-linejoin="round" stroke-linecap="round" stroke-width="2.667" d="m4.145 16.084 13.633 14.138 13.633-14.138c1.516-1.572 2.367-3.703 2.367-5.926 0-4.628-3.618-8.381-8.081-8.381-2.143 0-4.199.883-5.714 2.455l-2.204 2.286-2.204-2.286c-1.516-1.572-3.571-2.455-5.714-2.455-4.463 0-8.081 3.752-8.081 8.381 0 2.223.851 4.354 2.367 5.926z"/></symbol><symbol id="icon-logo" viewBox="0 0 61 32"><path fill="none" stroke="#fff" style="stroke:var(--color2,#fff)" stroke-miterlimit="10" stroke-width=".688" d="M14.671 14.071c1.503 0 2.721-1.194 2.721-2.667s-1.218-2.667-2.721-2.667-2.721 1.194-2.721 2.667c0 1.473 1.218 2.667 2.721 2.667zM16.847 5.964c1.503 0 2.721-1.194 2.721-2.667S18.35.63 16.847.63c-1.503 0-2.721 1.194-2.721 2.667s1.218 2.667 2.721 2.667z"/><path fill="#fff" style="fill:var(--color2,#fff)" d="M16.953 3.591c.022-.001.043-.007.062-.017s.036-.024.049-.04c.267-.352-.072-.457-.072-.457l-5.258.402a.158.158 0 0 1-.136-.048.146.146 0 0 1-.035-.135c.093-.419.254-.821.477-1.192.027-.047.067-.087.115-.114a.33.33 0 0 1 .32 0 .314.314 0 0 1 .115.114l-.002.413a.127.127 0 0 0 .021.08c.03.043.07.079.117.105a.162.162 0 0 0 .144 0 .15.15 0 0 0 .081-.114c.041-.328.051-1.062-.665-1.092-.967-.046-1.219 1.703-1.279 2.347a.203.203 0 0 0 .06.167c.022.022.048.04.078.051s.061.017.093.016h.789c.022 0 .043.005.063.013a.147.147 0 0 1 .084.089c.007.019.009.041.007.061l-.369 3.793c-.003.036-.019.069-.046.094s-.062.039-.1.041l-1.104.062c-.023.001-.047-.003-.069-.012s-.041-.022-.056-.039a.141.141 0 0 1-.036-.124c.038-.182.061-.367.069-.552 0-.187-.171-.256-.261-.308-.012-.008-.026-.013-.041-.014s-.029.001-.043.006c-.014.005-.025.014-.035.025s-.016.024-.019.037l-.437 1.998c-.006.023-.005.048.002.071s.019.044.036.062c.051.05.12.081.194.087.035.003.069-.005.099-.023s.051-.045.063-.077l.18-.492c.009-.027.027-.051.05-.068s.051-.029.081-.032l1.313-.125c.024-.002.048.001.071.009s.043.021.059.039l2.812 2.95c.014.015.032.028.052.036s.041.013.063.013h.106c.033 0 .064-.01.091-.028s.046-.044.056-.074l1.334-3.779c.009-.024.01-.05.006-.075s-.016-.048-.033-.068l-3.086-3.54a.135.135 0 0 1-.036-.113v-.034c.004-.034.021-.066.047-.089s.06-.038.095-.04l3.665-.264zM15.566 8.48l-.857 2.247a.153.153 0 0 1-.116.095c-.026.005-.053.003-.079-.004s-.048-.022-.066-.04L12.55 8.811c-.019-.02-.032-.044-.037-.071s-.004-.054.006-.079c.009-.025.026-.048.047-.065s.048-.029.075-.033l2.743-.423c.021-.002.043 0 .064.007s.039.017.056.03c.016.014.029.03.038.049s.014.039.014.06v.143a.118.118 0 0 1 .01.052zm-.267-.899-2.803.423a.157.157 0 0 1-.163-.099c-.008-.021-.011-.043-.008-.065l.343-3.114c.005-.026.018-.05.037-.07a.161.161 0 0 1 .151-.046.16.16 0 0 1 .072.037l2.464 2.69a.145.145 0 0 1-.019.212.158.158 0 0 1-.074.032z"/><path fill="#f57520" style="fill:var(--color4,#f57520)" d="m46.15 26.822 1.181-3.003-2.68-1.872h3.427l1.096-2.975.893 3.029h3.283l-2.765 1.764.837 3.057-2.421-1.736z"/><path fill="#fff" style="fill:var(--color2,#fff)" d="M32.018 31.841h3.44L45.026.153h-3.44l-9.568 31.688zM37.085 31.841l1.063-3.169h12.28c.315 0 .615.001.903-.006 1.611-.083 3.083-.925 4.22-2.032a6 6 0 0 0 1.838-4.299 6.003 6.003 0 0 0-1.859-4.321c-.608-.586-1.319-.863-2.094-.994a15.547 15.547 0 0 0-2.155-.124l-.215-.002H41.4l.938-2.87h4.753c.848 0 1.35.009 1.787.016.723.012 1.266.021 2.904-.016.861-.02 1.427-.046 1.93-.176a6.033 6.033 0 0 0 2.18-1.355 5.629 5.629 0 0 0 1.722-4.029c0-1.517-.606-3.169-1.722-4.246s-2.623-1.243-4.206-1.256h-5.907l.688-2.81h4.253c.34 0 .613-.003.849-.006.807-.009 1.194-.013 2.403.125.168.019.321.049.463.088 1.424.239 2.735.738 3.8 1.766 1.726 1.666 2.667 3.991 2.678 6.338-.011 2.332-.972 4.568-2.678 6.232a4.96 4.96 0 0 1-.686.56c.161.118.318.249.47.396 1.843 1.778 2.882 4.178 2.894 6.683-.011 2.489-1.037 4.875-2.859 6.65a9.787 9.787 0 0 1-4.175 2.39c-.881.295-1.886.465-3.034.465H37.087zM.625.153h3.377l8.067 26.725-1.251 4.962L.624.152zM12.132 31.84h3.314L22.45 5.892l8.005 25.948 1.626-5.082L23.701.152h-3.127L12.131 31.84z"/></symbol><symbol id="icon-seach" viewBox="0 0 32 32"><path fill="none" stroke="#fff" style="stroke:var(--color2,#fff)" stroke-linejoin="round" stroke-linecap="round" stroke-width="2.526" d="M26.947 14.316c0 6.976-5.655 12.632-12.632 12.632S1.683 21.293 1.683 14.316c0-6.976 5.655-12.632 12.632-12.632s12.632 5.655 12.632 12.632zM30.316 30.316l-7.068-7.068"/></symbol><symbol id="icon-user" viewBox="0 0 29 32"><path fill="none" stroke="#fff" style="stroke:var(--color2,#fff)" stroke-linejoin="round" stroke-linecap="round" stroke-width="2.4" d="M20.8 20.8H8a6.4 6.4 0 0 0-6.4 6.4v3.2h25.6v-3.2a6.4 6.4 0 0 0-6.4-6.4zM14.4 14.4c3.535 0 6.4-2.865 6.4-6.4s-2.865-6.4-6.4-6.4S8 4.465 8 8s2.865 6.4 6.4 6.4z"/></symbol><symbol id="icon-tel1" viewBox="0 0 32 32"><path fill="none" stroke="#f57520" style="stroke:var(--color4,#f57520)" stroke-linejoin="round" stroke-linecap="round" stroke-width="1.846" d="M22.564 1.231H9.436a3.281 3.281 0 0 0-3.282 3.282v22.974a3.281 3.281 0 0 0 3.282 3.282h13.128a3.281 3.281 0 0 0 3.282-3.282V4.513a3.281 3.281 0 0 0-3.282-3.282zM16 25.863v-.016"/></symbol><symbol id="icon-navigation" viewBox="0 0 26 32"><path fill="none" stroke="#f57520" style="stroke:var(--color4,#f57520)" stroke-linejoin="round" stroke-linecap="round" stroke-width="1.778" d="m21.021 30.595 3.852-28.796L1.861 19.533l11.95 1.425 7.209 9.637z"/></symbol><symbol id="icon-click" viewBox="0 0 33 32"><path fill="#fff" style="fill:var(--color2,#fff)" d="M12.64 3.2a.8.8 0 0 1 .8.8v3.2a.8.8 0 1 1-1.6 0V4a.8.8 0 0 1 .8-.8zM6.416 5.776a.803.803 0 0 1 1.134 0L9.812 8.04a.806.806 0 0 1 .184.879.818.818 0 0 1-.438.438.807.807 0 0 1-.619-.005.806.806 0 0 1-.26-.179L6.417 6.911a.8.8 0 0 1 0-1.132l-.002-.002zm12.448 0a.787.787 0 0 1 .235.567.812.812 0 0 1-.235.567l-2.266 2.262a.806.806 0 0 1-.879.184.802.802 0 0 1-.254-1.317l2.262-2.262a.8.8 0 0 1 1.132 0l.003-.002zM3.84 12a.8.8 0 0 1 .8-.8h3.2a.8.8 0 1 1 0 1.6h-3.2a.8.8 0 0 1-.8-.8zm10.624-.32a1.604 1.604 0 0 0-2.373.369c-.163.256-.25.554-.251.858v14.562c0 1.478 1.832 2.166 2.805 1.054l3.242-3.705a2.393 2.393 0 0 1 1.807-.817h5.138c1.496 0 2.174-1.872 1.024-2.829l-11.39-9.491zM13.44 27.472V12.907L24.83 22.4h-5.138a3.994 3.994 0 0 0-3.011 1.367l-3.242 3.706z"/></symbol><symbol id="icon-email" viewBox="0 0 38 32"><path fill="none" stroke="#f57520" style="stroke:var(--color4,#f57520)" stroke-linejoin="round" stroke-linecap="round" stroke-width="2.182" d="M34.424 2.425H3.394c-.536 0-1.02.217-1.371.568s-.568.836-.568 1.371v23.273c0 1.071.868 1.939 1.939 1.939h31.03a1.939 1.939 0 0 0 1.939-1.939V4.364c0-.536-.217-1.02-.568-1.371s-.836-.568-1.371-.568z"/><path fill="none" stroke="#f57520" style="stroke:var(--color4,#f57520)" stroke-linejoin="round" stroke-linecap="round" stroke-width="2.182" d="m2.023 2.993 14.144 14.144a3.878 3.878 0 0 0 5.485 0L35.796 2.993"/></symbol><symbol id="icon-calendar" viewBox="0 0 30 32"><path fill="none" stroke="#f57520" style="stroke:var(--color4,#f57520)" stroke-linejoin="round" stroke-linecap="round" stroke-width="1.846" d="M1.641 14.359h26.256M1.641 7.795v19.692a3.281 3.281 0 0 0 3.282 3.282h19.692a3.281 3.281 0 0 0 3.282-3.282V7.795a3.281 3.281 0 0 0-3.282-3.282H4.923a3.281 3.281 0 0 0-3.282 3.282zM19.692 1.231v6.564M9.846 1.231v6.564"/></symbol></defs></svg>