<svg width="14" height="24" viewBox="0 0 14 24" fill="none" xmlns="http://www.w3.org/2000/svg">
<path d="M4.8752 21.0999L13.3002 12.6999C13.4002 12.5999 13.4709 12.4916 13.5122 12.3749C13.5542 12.2582 13.5752 12.1332 13.5752 11.9999C13.5752 11.8666 13.5542 11.7416 13.5122 11.6249C13.4709 11.5082 13.4002 11.3999 13.3002 11.2999L4.8752 2.8749C4.64186 2.64157 4.3502 2.5249 4.0002 2.5249C3.6502 2.5249 3.3502 2.6499 3.1002 2.8999C2.8502 3.1499 2.7252 3.44157 2.7252 3.7749C2.7252 4.10824 2.8502 4.3999 3.1002 4.6499L10.4502 11.9999L3.1002 19.3499C2.86686 19.5832 2.7502 19.8706 2.7502 20.2119C2.7502 20.5539 2.8752 20.8499 3.1252 21.0999C3.3752 21.3499 3.66686 21.4749 4.0002 21.4749C4.33353 21.4749 4.6252 21.3499 4.8752 21.0999Z" fill="#101010"/>
</svg>
