<svg aria-hidden="true" style="position: absolute; width: 0; height: 0; overflow: hidden;" version="1.1" xmlns="http://www.w3.org/2000/svg" xmlns:xlink="http://www.w3.org/1999/xlink">
<defs>
<symbol id="icon-top" viewBox="0 0 32 32">
<path fill="#101010" style="fill: var(--color1, #101010)" d="M32 16c0 8.837-7.163 16-16 16s-16-7.163-16-16c0-8.837 7.163-16 16-16s16 7.163 16 16z"></path>
<path fill="#fff" style="fill: var(--color2, #fff)" d="M22.537 17.636l-5.669-5.706c-0.067-0.068-0.141-0.116-0.219-0.144s-0.163-0.043-0.253-0.043-0.174 0.014-0.253 0.043c-0.079 0.028-0.152 0.076-0.219 0.144l-5.686 5.706c-0.157 0.158-0.236 0.356-0.236 0.593s0.084 0.44 0.253 0.61c0.169 0.169 0.366 0.254 0.591 0.254s0.422-0.085 0.591-0.254l4.96-4.978 4.96 4.978c0.158 0.158 0.351 0.237 0.582 0.237s0.431-0.085 0.599-0.254c0.169-0.169 0.253-0.367 0.253-0.593s-0.084-0.423-0.253-0.593z"></path>
</symbol>
<symbol id="icon-footer-phone" viewBox="0 0 23 32">
<path fill="none" stroke="#4c4c4c" style="stroke: var(--color1, #4c4c4c)" stroke-linejoin="round" stroke-linecap="round" stroke-miterlimit="4" stroke-width="1.8462" d="M18.052 1.231h-13.128c-1.813 0-3.282 1.469-3.282 3.282v22.974c0 1.813 1.469 3.282 3.282 3.282h13.128c1.813 0 3.282-1.469 3.282-3.282v-22.974c0-1.813-1.469-3.282-3.282-3.282z"></path>
<path fill="none" stroke="#4c4c4c" style="stroke: var(--color1, #4c4c4c)" stroke-linejoin="round" stroke-linecap="round" stroke-miterlimit="4" stroke-width="1.8462" d="M11.488 25.863v-0.016"></path>
</symbol>
<symbol id="icon-Vector1" viewBox="0 0 32 32">
<path fill="#4c4c4c" style="fill: var(--color3, #4c4c4c)" d="M5.731 2.956c-0.287 0.175-0.138-0.056-3.169 4.825-2.519 4.050-2.525 4.056-2.55 4.438-0.013 0.306 0.006 0.419 0.125 0.6 0.081 0.125 3.538 3.831 7.688 8.231 5.387 5.712 7.606 8.019 7.744 8.069 0.256 0.087 0.606 0.087 0.863 0 0.137-0.050 2.356-2.356 7.744-8.069 4.15-4.4 7.606-8.106 7.688-8.231 0.119-0.181 0.137-0.294 0.125-0.6-0.025-0.381-0.031-0.394-2.294-4.031-3.35-5.381-3.15-5.075-3.431-5.237l-0.25-0.138h-20.044l-0.237 0.144zM10 5.012c-0.006 0.044-0.281 1.444-0.613 3.112l-0.613 3.031-2.888 0.019-2.888 0.012 0.3-0.481c0.169-0.269 1.044-1.675 1.944-3.131l1.644-2.638h1.556c1.206 0 1.556 0.019 1.556 0.075zM19.775 5.044c0.056 0.188 1.288 5.994 1.288 6.069 0 0.056-1.269 0.075-5.031 0.075-2.769 0-5.031-0.019-5.031-0.050-0.006-0.025 0.269-1.431 0.606-3.125l0.613-3.075h3.762c3.525 0 3.762 0.006 3.794 0.106zM27.050 8.044l1.931 3.113-2.813 0.019c-1.55 0.006-2.825 0-2.844-0.019-0.044-0.037-1.319-5.95-1.325-6.112 0-0.1 0.113-0.106 1.556-0.106h1.556l1.938 3.106zM10.912 18.313l1.963 4.906-0.369-0.375c-0.356-0.369-8.45-8.969-8.75-9.3l-0.156-0.169 2.675 0.012 2.675 0.019 1.962 4.906zM20.725 13.481c-0.331 0.887-4.694 11.644-4.719 11.644s-1.1-2.644-2.394-5.875l-2.35-5.875h4.75c4.5 0 4.75 0.006 4.712 0.106zM28.243 13.544c-0.313 0.35-8.4 8.938-8.725 9.269l-0.337 0.344 0.131-0.344c0.269-0.694 3.756-9.338 3.788-9.387 0.019-0.025 1.219-0.050 2.663-0.050h2.631l-0.15 0.169z"></path>
</symbol>
<symbol id="icon-vector2" viewBox="0 0 32 32">
<path fill="#4c4c4c" style="fill: var(--color3, #4c4c4c)" d="M14.956 0.094c-1.225 0.219-2.106 0.688-3.256 1.719-0.813 0.738-1.769 1.119-2.8 1.125-0.825 0-1.938 0.263-2.65 0.625-1.081 0.544-2.15 1.613-2.688 2.688-0.362 0.713-0.625 1.825-0.625 2.65-0.006 0.938-0.337 1.863-0.931 2.569-0.913 1.081-1.106 1.35-1.387 1.938-0.463 0.95-0.581 1.5-0.581 2.594 0 1.069 0.119 1.625 0.544 2.531 0.294 0.625 0.606 1.075 1.181 1.706 0.813 0.887 1.094 1.581 1.175 2.881 0.075 1.212 0.281 2 0.725 2.813 0.562 1.019 1.556 1.981 2.587 2.506 0.706 0.363 1.825 0.625 2.65 0.625 1.031 0.006 2.006 0.394 2.806 1.125 0.644 0.587 1.063 0.887 1.575 1.15 1.181 0.6 2.456 0.794 3.737 0.569 1.225-0.212 2.156-0.694 3.206-1.656 0.9-0.825 1.581-1.106 2.919-1.188 1.837-0.119 3.094-0.663 4.2-1.825 1.131-1.175 1.6-2.306 1.719-4.087 0.081-1.35 0.356-2.012 1.219-2.969 0.8-0.881 1.25-1.675 1.519-2.675 0.137-0.512 0.156-0.731 0.156-1.506s-0.019-0.994-0.156-1.506c-0.281-1.037-0.731-1.819-1.613-2.787-0.731-0.8-1.119-1.775-1.125-2.806 0-0.912-0.288-2.037-0.725-2.825-0.644-1.181-1.869-2.269-3.025-2.706-0.656-0.25-1.288-0.375-2.169-0.431-1.337-0.081-2.019-0.362-2.919-1.188-0.775-0.712-1.413-1.113-2.212-1.4-0.938-0.331-2.1-0.431-3.056-0.256zM16.843 1.969c0.65 0.138 1.363 0.506 1.925 1.006 0.775 0.681 1.156 0.95 1.762 1.244 0.738 0.362 1.431 0.525 2.462 0.594 0.469 0.031 0.994 0.1 1.163 0.144 1.331 0.362 2.406 1.394 2.819 2.694 0.113 0.369 0.175 0.731 0.212 1.356 0.069 1.063 0.231 1.731 0.625 2.525 0.319 0.644 0.469 0.856 1.212 1.7 1.462 1.669 1.462 3.856-0.006 5.544-0.744 0.85-0.887 1.056-1.206 1.694-0.394 0.794-0.556 1.462-0.625 2.525-0.106 1.669-0.675 2.731-1.869 3.519-0.656 0.431-1.275 0.606-2.325 0.675-1.063 0.069-1.731 0.231-2.525 0.625-0.644 0.319-0.856 0.469-1.7 1.212-1.663 1.462-3.875 1.462-5.537 0-0.844-0.744-1.056-0.894-1.7-1.212-0.794-0.394-1.463-0.556-2.525-0.625-0.625-0.038-0.988-0.1-1.356-0.212-1.3-0.413-2.331-1.488-2.694-2.819-0.044-0.169-0.112-0.694-0.144-1.163-0.069-1.063-0.237-1.731-0.625-2.525-0.319-0.644-0.469-0.856-1.212-1.7-1.462-1.663-1.462-3.869 0-5.544 0.706-0.806 0.956-1.162 1.244-1.756 0.362-0.744 0.525-1.431 0.594-2.463 0.081-1.206 0.244-1.731 0.775-2.469 0.787-1.106 1.813-1.625 3.419-1.725 1.775-0.112 2.713-0.519 4.219-1.837 1.056-0.925 2.331-1.275 3.619-1.006z"></path>
<path fill="#4c4c4c" style="fill: var(--color3, #4c4c4c)" d="M15.093 6.606c-2.95 0.35-5.388 1.825-6.963 4.213-0.694 1.044-1.188 2.262-1.419 3.525-0.162 0.863-0.162 2.45 0 3.313 0.725 3.906 3.725 6.906 7.631 7.631 0.863 0.163 2.45 0.163 3.313 0 3.906-0.725 6.906-3.725 7.631-7.631 0.163-0.863 0.163-2.45 0-3.313-0.756-4.063-3.969-7.138-8.038-7.688-0.6-0.081-1.688-0.106-2.156-0.050zM17.124 8.525c2.406 0.369 4.519 1.9 5.606 4.069 0.6 1.188 0.794 2.044 0.794 3.406 0 1.050-0.094 1.656-0.381 2.469-0.919 2.556-2.988 4.369-5.656 4.944-0.725 0.163-2.256 0.156-2.988 0-1.825-0.394-3.463-1.444-4.594-2.944-0.644-0.856-1.206-2.219-1.375-3.325-0.556-3.669 1.594-7.144 5.163-8.338 1.050-0.35 2.287-0.45 3.431-0.281z"></path>
<path fill="#4c4c4c" style="fill: var(--color3, #4c4c4c)" d="M17.125 15.031l-2.469 2.469-2.312-2.313-1.313 1.313 3.656 3.656 3.125-3.125c1.719-1.719 3.125-3.156 3.125-3.187 0-0.081-1.2-1.281-1.281-1.281-0.037 0-1.175 1.113-2.531 2.469z"></path>
</symbol>
<symbol id="icon-vector3" viewBox="0 0 32 32">
<path fill="#4c4c4c" style="fill: var(--color3, #4c4c4c)" d="M14.187 0.093c-0.838 0.106-0.963 0.144-1.244 0.35-0.325 0.231-0.406 0.4-0.938 1.9-0.244 0.681-0.45 1.244-0.456 1.25-0.012 0.006-0.281 0.112-0.6 0.244l-0.581 0.238-0.637-0.294c-2.081-0.975-1.987-0.938-2.388-0.931-0.463 0-0.638 0.087-1.406 0.7-0.756 0.606-1.781 1.631-2.388 2.388-0.556 0.7-0.669 0.906-0.719 1.306-0.038 0.344 0.094 0.7 0.825 2.231l0.425 0.888-0.244 0.581c-0.131 0.325-0.237 0.594-0.244 0.606-0.006 0.006-0.569 0.213-1.25 0.456-0.681 0.238-1.344 0.494-1.475 0.556-0.25 0.131-0.506 0.419-0.613 0.706-0.237 0.625-0.331 3.169-0.163 4.525 0.106 0.844 0.156 1.019 0.381 1.319 0.206 0.269 0.431 0.375 1.881 0.887 0.675 0.238 1.231 0.444 1.237 0.45 0.006 0.012 0.087 0.212 0.181 0.456 0.1 0.238 0.2 0.506 0.238 0.594 0.056 0.137-0.013 0.319-0.5 1.344-0.306 0.65-0.594 1.294-0.638 1.431-0.087 0.281-0.050 0.7 0.1 0.994 0.456 0.875 2.6 3.038 3.719 3.744 0.237 0.15 0.744 0.206 1.031 0.113 0.138-0.044 0.781-0.331 1.431-0.637 1.025-0.488 1.206-0.556 1.344-0.5 0.088 0.038 0.356 0.137 0.594 0.238 0.244 0.094 0.444 0.175 0.456 0.181 0.006 0.006 0.213 0.563 0.45 1.238 0.512 1.45 0.619 1.675 0.887 1.881 0.3 0.225 0.456 0.269 1.281 0.381 1.331 0.175 3.925 0.081 4.569-0.163 0.281-0.106 0.569-0.363 0.7-0.613 0.063-0.131 0.319-0.794 0.556-1.475 0.244-0.681 0.45-1.244 0.456-1.25 0.012-0.006 0.219-0.087 0.456-0.181 0.244-0.1 0.506-0.2 0.594-0.238 0.137-0.056 0.319 0.012 1.344 0.5 0.656 0.306 1.294 0.594 1.431 0.637 0.288 0.094 0.794 0.038 1.031-0.113 1.119-0.706 3.262-2.869 3.719-3.744 0.15-0.294 0.188-0.712 0.1-0.994-0.044-0.137-0.331-0.781-0.637-1.431-0.488-1.025-0.556-1.206-0.5-1.344 0.038-0.087 0.137-0.356 0.238-0.594 0.094-0.244 0.175-0.444 0.181-0.456 0.006-0.006 0.563-0.212 1.238-0.45 1.45-0.512 1.675-0.619 1.881-0.887 0.225-0.3 0.275-0.475 0.381-1.319 0.119-0.975 0.119-2.619 0-3.6-0.181-1.45-0.194-1.463-2.5-2.281l-1.006-0.356-0.181-0.475c-0.106-0.262-0.212-0.537-0.238-0.606-0.044-0.1 0.075-0.406 0.506-1.319 0.306-0.656 0.594-1.294 0.637-1.431 0.087-0.281 0.050-0.7-0.1-0.994-0.331-0.644-1.9-2.331-2.962-3.181-0.769-0.613-0.944-0.7-1.406-0.7-0.4-0.006-0.306-0.044-2.387 0.931l-0.637 0.294-0.581-0.237c-0.319-0.131-0.587-0.237-0.6-0.244-0.006-0.006-0.212-0.569-0.456-1.25-0.238-0.681-0.494-1.344-0.556-1.475-0.131-0.25-0.419-0.506-0.7-0.613-0.619-0.231-3.275-0.331-4.55-0.163zM16.781 2.812h0.394l0.456 1.294c0.581 1.644 0.637 1.719 1.65 2.081 0.381 0.131 0.969 0.375 1.313 0.537 0.55 0.263 0.675 0.3 1.031 0.3 0.381 0 0.475-0.031 1.613-0.575l1.212-0.575 0.431 0.381c0.238 0.213 0.619 0.588 0.837 0.838l0.406 0.456-0.575 1.206c-0.544 1.144-0.575 1.238-0.575 1.619 0 0.356 0.038 0.481 0.313 1.063 0.175 0.363 0.413 0.938 0.531 1.281 0.175 0.512 0.262 0.675 0.494 0.912 0.262 0.262 0.369 0.313 1.581 0.738l1.294 0.456 0.012 0.481c0.012 0.463-0.012 1.837-0.038 1.863-0.006 0.006-0.6 0.225-1.325 0.481-1.594 0.575-1.681 0.644-2.025 1.637-0.119 0.344-0.35 0.913-0.525 1.275-0.275 0.581-0.313 0.706-0.313 1.063 0 0.381 0.031 0.475 0.575 1.619l0.581 1.212-0.175 0.194c-0.431 0.481-0.825 0.881-1.15 1.169l-0.356 0.306-1.206-0.575c-1.15-0.544-1.231-0.575-1.619-0.575-0.356 0.006-0.488 0.044-1.063 0.313-0.363 0.175-0.938 0.413-1.281 0.531-0.512 0.175-0.675 0.262-0.913 0.494-0.262 0.262-0.313 0.369-0.738 1.569l-0.456 1.288-0.587 0.031c-0.325 0.019-0.85 0.019-1.175 0l-0.588-0.031-0.456-1.288c-0.425-1.2-0.475-1.306-0.738-1.569-0.238-0.231-0.4-0.319-0.912-0.494-0.344-0.119-0.919-0.356-1.281-0.531-0.581-0.275-0.7-0.313-1.063-0.313-0.381 0-0.475 0.038-1.619 0.575l-1.206 0.575-0.356-0.306c-0.325-0.288-0.719-0.688-1.15-1.169l-0.175-0.194 0.581-1.212c0.544-1.144 0.575-1.238 0.575-1.619 0-0.356-0.037-0.481-0.313-1.063-0.175-0.363-0.406-0.931-0.525-1.275-0.344-0.994-0.431-1.063-2.025-1.637-0.725-0.256-1.319-0.475-1.325-0.481-0.025-0.025-0.050-1.4-0.038-1.863l0.013-0.481 1.3-0.456c1.206-0.425 1.313-0.475 1.575-0.738 0.231-0.238 0.319-0.4 0.494-0.912 0.119-0.344 0.356-0.919 0.531-1.281 0.275-0.581 0.313-0.706 0.313-1.063 0-0.381-0.031-0.475-0.575-1.619l-0.575-1.206 0.406-0.456c0.219-0.25 0.6-0.625 0.838-0.838l0.431-0.381 1.213 0.575c1.137 0.544 1.231 0.575 1.613 0.575 0.356 0.006 0.481-0.031 1.031-0.3 0.344-0.162 0.938-0.406 1.313-0.544 1.006-0.356 1.069-0.431 1.65-2.069l0.456-1.294 0.512-0.025c0.275-0.013 0.631-0.013 0.781 0 0.15 0.006 0.45 0.019 0.663 0.019z"></path>
<path fill="#4c4c4c" style="fill: var(--color3, #4c4c4c)" d="M14.693 9.444c-2.575 0.544-4.519 2.563-4.975 5.156-0.481 2.75 0.931 5.537 3.431 6.775 0.35 0.175 0.912 0.387 1.256 0.481 0.55 0.144 0.744 0.163 1.594 0.163s1.044-0.019 1.594-0.163c3.925-1.044 5.913-5.394 4.106-9.012-1.294-2.606-4.163-3.994-7.006-3.4zM16.843 12.219c0.906 0.231 1.819 0.925 2.269 1.725 0.988 1.75 0.262 4.044-1.563 4.925-2.731 1.319-5.738-1.144-4.988-4.081 0.169-0.656 0.431-1.106 0.969-1.637 0.694-0.688 1.469-1.012 2.438-1.019 0.281-0.006 0.675 0.037 0.875 0.088z"></path>
</symbol>
<symbol id="icon-vector4" viewBox="0 0 32 32">
<path fill="#4c4c4c" style="fill: var(--color3, #4c4c4c)" d="M14.875 0.038c-0.119 0.013-0.488 0.056-0.813 0.094-1.944 0.219-4.175 0.938-5.881 1.9-1.338 0.756-2.419 1.575-3.494 2.656-2.556 2.55-4.15 5.813-4.594 9.375-0.125 1.012-0.125 2.925 0 3.937 0.344 2.775 1.512 5.637 3.2 7.831 0.444 0.569 0.9 0.725 1.431 0.488 0.388-0.175 0.556-0.456 0.556-0.925 0-0.331-0.025-0.413-0.206-0.656-1.631-2.175-2.55-4.313-2.925-6.8-0.131-0.869-0.15-2.694-0.031-3.563 0.881-6.594 6.019-11.594 12.575-12.25 0.394-0.044 0.781-0.063 0.856-0.050 0.106 0.013-0.088 0.212-1 1.019-0.713 0.631-1.162 1.075-1.213 1.2-0.375 0.881 0.494 1.75 1.369 1.369 0.287-0.125 4.331-3.737 4.456-3.981 0.131-0.256 0.131-0.725 0-0.975-0.163-0.319-0.431-0.463-1.025-0.556-0.531-0.087-2.831-0.163-3.262-0.113z"></path>
<path fill="#4c4c4c" style="fill: var(--color3, #4c4c4c)" d="M27.275 5.744c-0.387 0.175-0.556 0.456-0.556 0.925 0 0.331 0.025 0.412 0.206 0.656 2.575 3.425 3.538 7.213 2.825 11.163-0.694 3.85-3.006 7.256-6.344 9.356-1.956 1.231-4.35 1.962-6.769 2.069l-0.794 0.038 1.138-1.119c0.625-0.613 1.169-1.175 1.2-1.25 0.038-0.075 0.069-0.288 0.069-0.469 0-0.394-0.15-0.681-0.45-0.863-0.275-0.169-0.825-0.169-1.081-0.006-0.244 0.156-3.95 3.756-4.1 3.981-0.175 0.262-0.162 0.819 0.025 1.087 0.213 0.325 0.475 0.438 1.188 0.538 5.019 0.675 10-0.981 13.519-4.5 2.35-2.356 3.863-5.294 4.469-8.706 0.188-1.050 0.237-3.344 0.094-4.519-0.344-2.819-1.438-5.531-3.15-7.8-0.506-0.675-0.925-0.838-1.488-0.581z"></path>
<path fill="#4c4c4c" style="fill: var(--color3, #4c4c4c)" d="M10.156 9.506c-1.050 0.081-1.875 0.456-2.594 1.181-0.775 0.775-1.094 1.606-1.050 2.794 0.013 0.525 0.044 0.662 0.15 0.813 0.456 0.619 1.281 0.619 1.737 0 0.1-0.131 0.131-0.306 0.162-0.844 0.031-0.5 0.075-0.731 0.175-0.925 0.719-1.4 3.338-1.281 4.037 0.181 0.313 0.656 0.25 1.625-0.144 2.194-0.237 0.344-0.919 0.963-1.944 1.763-2.231 1.738-3.169 2.7-3.906 4-0.244 0.419-0.281 0.544-0.281 0.844 0 0.413 0.156 0.694 0.5 0.894 0.213 0.125 0.319 0.131 3.75 0.15 2.456 0.012 3.631 0 3.856-0.050 0.75-0.163 1.063-1 0.6-1.613-0.294-0.394-0.25-0.387-3.125-0.387h-2.606l0.431-0.444c0.244-0.244 1.056-0.938 1.813-1.544 2.781-2.219 3.287-2.963 3.3-4.856 0.006-1.262-0.313-2.075-1.144-2.912-0.906-0.919-2.213-1.356-3.719-1.237z"></path>
<path fill="#4c4c4c" style="fill: var(--color3, #4c4c4c)" d="M22.581 9.5c-0.106 0.025-0.269 0.1-0.35 0.162-0.225 0.169-6.919 8.325-6.994 8.519-0.094 0.244-0.025 0.8 0.119 0.994 0.069 0.094 0.219 0.225 0.338 0.294 0.206 0.119 0.344 0.125 3.169 0.144l2.95 0.019v1.038c0 1.194 0.075 1.462 0.481 1.712 0.3 0.188 0.8 0.188 1.1 0 0.406-0.25 0.481-0.519 0.481-1.706v-1.031l0.469-0.038c0.538-0.038 0.806-0.163 1.012-0.481 0.188-0.275 0.2-0.819 0.019-1.113-0.206-0.337-0.462-0.45-1.012-0.45h-0.488v-3.637c0-3.55 0-3.644-0.131-3.9-0.2-0.419-0.688-0.637-1.163-0.525zM21.794 17.544c-0.012 0.012-0.781 0.012-1.706 0.006l-1.688-0.019 1.694-2.050 1.688-2.056 0.019 2.050c0.006 1.125 0.006 2.056-0.006 2.069z"></path>
</symbol>
<symbol id="icon-map-logo" viewBox="0 0 26 32">
<path fill="#101010" style="fill: var(--color1, #101010)" d="M19.942 31.304c0 0.384-3.115 0.696-6.957 0.696s-6.957-0.311-6.957-0.696c0-0.384 3.115-0.696 6.957-0.696s6.957 0.311 6.957 0.696z"></path>
<path fill="#f57520" style="fill: var(--color2, #f57520)" d="M22.168 22.135l-9.182 9.169-9.182-9.169c-1.816-1.813-3.053-4.124-3.554-6.639s-0.244-5.122 0.739-7.492c0.983-2.369 2.647-4.394 4.783-5.819s4.646-2.185 7.214-2.185c2.568 0 5.079 0.76 7.214 2.185s3.8 3.45 4.783 5.819c0.983 2.369 1.24 4.976 0.739 7.492s-1.738 4.826-3.554 6.639z"></path>
<path fill="#101010" style="fill: var(--color1, #101010)" d="M21.84 21.943l-8.854 8.897-8.854-8.897c-1.751-1.76-2.944-4.002-3.427-6.442s-0.235-4.971 0.713-7.27c0.948-2.299 2.553-4.264 4.612-5.647s4.48-2.12 6.957-2.12c2.477 0 4.898 0.738 6.957 2.12s3.664 3.348 4.612 5.647c0.948 2.299 1.196 4.829 0.713 7.27s-1.676 4.683-3.427 6.442z"></path>
<path fill="#fff" style="fill: var(--color3, #fff)" d="M8.954 9.752c0.006-0 0.013-0.002 0.018-0.005s0.011-0.007 0.015-0.012c0.079-0.109-0.021-0.142-0.021-0.142l-1.555 0.124c-0.007 0.001-0.015 0-0.022-0.003s-0.013-0.007-0.018-0.013c-0.005-0.006-0.009-0.012-0.010-0.020s-0.002-0.015-0-0.022c0.027-0.13 0.075-0.254 0.141-0.369 0.008-0.015 0.020-0.027 0.034-0.035s0.031-0.013 0.047-0.013c0.017 0 0.033 0.005 0.047 0.013s0.026 0.021 0.034 0.035l-0 0.128c-0.001 0.009 0.002 0.017 0.006 0.025 0.009 0.013 0.021 0.025 0.034 0.033 0.007 0.003 0.014 0.005 0.021 0.005s0.015-0.002 0.021-0.005c0.007-0.004 0.012-0.009 0.016-0.015s0.007-0.013 0.008-0.021c0.012-0.102 0.015-0.329-0.197-0.338-0.286-0.014-0.36 0.527-0.378 0.727-0.001 0.009 0 0.019 0.003 0.028s0.008 0.017 0.014 0.024c0.006 0.007 0.014 0.012 0.023 0.016s0.018 0.005 0.028 0.005h0.233c0.006 0 0.013 0.001 0.019 0.004s0.011 0.006 0.015 0.011c0.004 0.005 0.008 0.010 0.010 0.017s0.003 0.013 0.002 0.019l-0.109 1.175c-0.001 0.011-0.006 0.021-0.014 0.029s-0.018 0.012-0.029 0.013l-0.326 0.019c-0.007 0-0.014-0.001-0.020-0.004s-0.012-0.007-0.017-0.012c-0.005-0.005-0.008-0.011-0.010-0.018s-0.002-0.014-0.001-0.021c0.011-0.056 0.018-0.114 0.020-0.171 0-0.058-0.051-0.079-0.077-0.095-0.004-0.002-0.008-0.004-0.012-0.004s-0.009 0-0.013 0.002c-0.004 0.002-0.008 0.004-0.010 0.008s-0.005 0.007-0.005 0.012l-0.129 0.619c-0.002 0.007-0.002 0.015 0 0.022s0.006 0.014 0.011 0.019c0.015 0.016 0.036 0.025 0.057 0.027 0.010 0.001 0.021-0.002 0.029-0.007s0.015-0.014 0.019-0.024l0.053-0.152c0.003-0.008 0.008-0.016 0.015-0.021s0.015-0.009 0.024-0.010l0.388-0.039c0.007-0.001 0.014 0 0.021 0.003s0.013 0.007 0.017 0.012l0.831 0.914c0.004 0.005 0.010 0.009 0.015 0.011s0.012 0.004 0.019 0.004h0.031c0.010 0 0.019-0.003 0.027-0.009s0.014-0.014 0.017-0.023l0.394-1.171c0.003-0.007 0.003-0.015 0.002-0.023s-0.005-0.015-0.010-0.021l-0.912-1.097c-0.004-0.005-0.007-0.010-0.009-0.016s-0.002-0.012-0.002-0.019v-0.011c0.001-0.011 0.006-0.020 0.014-0.028s0.018-0.012 0.028-0.012l1.084-0.082zM8.544 11.266l-0.253 0.696c-0.003 0.007-0.007 0.014-0.013 0.019s-0.013 0.009-0.021 0.010c-0.008 0.002-0.016 0.001-0.023-0.001s-0.014-0.007-0.020-0.013l-0.561-0.609c-0.006-0.006-0.009-0.014-0.011-0.022s-0.001-0.017 0.002-0.024c0.003-0.008 0.008-0.015 0.014-0.020s0.014-0.009 0.022-0.010l0.811-0.131c0.006-0.001 0.013 0 0.019 0.002s0.012 0.005 0.016 0.009c0.005 0.004 0.009 0.009 0.011 0.015s0.004 0.012 0.004 0.018v0.044c0.002 0.005 0.003 0.011 0.003 0.016zM8.465 10.987l-0.829 0.131c-0.007 0.001-0.014-0-0.020-0.002s-0.012-0.006-0.017-0.011c-0.005-0.005-0.009-0.011-0.011-0.017s-0.003-0.013-0.002-0.020l0.101-0.965c0.002-0.008 0.005-0.016 0.011-0.022s0.013-0.011 0.020-0.013c0.008-0.002 0.016-0.003 0.024-0.001s0.015 0.006 0.021 0.012l0.728 0.833c0.005 0.006 0.009 0.014 0.010 0.022s0.001 0.016-0.002 0.024c-0.003 0.008-0.008 0.015-0.014 0.020s-0.014 0.009-0.022 0.010z"></path>
<path fill="#f57520" style="fill: var(--color2, #f57520)" d="M17.586 16.947l0.349-0.93-0.792-0.58h1.013l0.324-0.921 0.264 0.938h0.971l-0.818 0.546 0.247 0.947-0.716-0.538z"></path>
<path fill="#fff" style="fill: var(--color3, #fff)" d="M13.409 18.501h1.017l2.829-9.815h-1.017l-2.829 9.815z"></path>
<path fill="#fff" style="fill: var(--color3, #fff)" d="M14.906 18.501l0.314-0.981 3.631 0c0.094 0 0.184 0 0.27-0.002 0.475-0.027 0.91-0.287 1.245-0.629 0.348-0.355 0.543-0.833 0.543-1.332 0-0.501-0.198-0.982-0.55-1.338-0.18-0.182-0.391-0.268-0.621-0.308-0.145-0.019-0.291-0.031-0.434-0.036-0.066-0.001-0.133-0.002-0.201-0.002-0.022-0-0.044-0-0.066-0v-0h-2.856l0.277-0.889h1.405c0.251 0 0.399 0.003 0.528 0.005 0.214 0.004 0.374 0.007 0.858-0.005 0.254-0.006 0.422-0.014 0.571-0.054 0.241-0.090 0.461-0.233 0.645-0.42 0.326-0.333 0.509-0.781 0.509-1.248 0-0.47-0.179-0.981-0.509-1.315s-0.774-0.385-1.242-0.389h-1.748l0.203-0.87h1.257c0.101 0 0.181-0.001 0.251-0.002 0.239-0.003 0.353-0.004 0.71 0.039 0.049 0.006 0.095 0.015 0.137 0.027 0.421 0.074 0.809 0.228 1.124 0.547 0.51 0.516 0.789 1.236 0.792 1.963-0.003 0.722-0.287 1.415-0.792 1.93-0.065 0.066-0.132 0.123-0.203 0.174 0.048 0.036 0.094 0.077 0.139 0.123 0.545 0.551 0.852 1.294 0.856 2.070-0.003 0.771-0.307 1.51-0.845 2.060-0.346 0.353-0.772 0.603-1.235 0.741-0.26 0.091-0.557 0.144-0.896 0.144h-4.068z"></path>
<path fill="#fff" style="fill: var(--color3, #fff)" d="M4.127 8.687h0.998l2.385 8.278-0.37 1.537-3.014-9.815z"></path>
<path fill="#fff" style="fill: var(--color3, #fff)" d="M7.529 18.501h0.98l2.071-8.037 2.367 8.037 0.481-1.574-2.478-8.241h-0.924l-2.496 9.815z"></path>
</symbol>
<symbol id="icon-video" viewBox="0 0 32 32">
<path fill="#f57520" style="fill: var(--color4, #f57520)" d="M24.225 15.306c0.636 0.368 0.636 1.285 0 1.653l-12.213 7.071c-0.637 0.369-1.434-0.091-1.434-0.827v-14.141c0-0.736 0.797-1.195 1.434-0.827l12.213 7.070z"></path>
<path fill="none" stroke="#f57520" style="stroke: var(--color4, #f57520)" stroke-linejoin="miter" stroke-linecap="butt" stroke-miterlimit="4" stroke-width="0.4776" d="M31.761 16c0 8.705-7.057 15.761-15.761 15.761s-15.761-7.057-15.761-15.761c0-8.705 7.057-15.761 15.761-15.761s15.761 7.057 15.761 15.761z"></path>
</symbol>
<symbol id="icon-tel" viewBox="0 0 32 32">
<path fill="none" stroke="#f57520" style="stroke: var(--color4, #f57520)" stroke-linejoin="round" stroke-linecap="round" stroke-miterlimit="4" stroke-width="1.8462" d="M22.564 1.231h-13.128c-1.813 0-3.282 1.469-3.282 3.282v22.974c0 1.813 1.469 3.282 3.282 3.282h13.128c1.813 0 3.282-1.469 3.282-3.282v-22.974c0-1.813-1.469-3.282-3.282-3.282z"></path>
<path fill="none" stroke="#f57520" style="stroke: var(--color4, #f57520)" stroke-linejoin="round" stroke-linecap="round" stroke-miterlimit="4" stroke-width="1.8462" d="M16 25.863v-0.016"></path>
</symbol>
<symbol id="icon-cart" viewBox="0 0 34 32">
<path fill="none" stroke="#fff" style="stroke: var(--color2, #fff)" stroke-linejoin="round" stroke-linecap="round" stroke-miterlimit="4" stroke-width="2.4" d="M25.6 24h-16.8l-3.2-22.4h-4"></path>
<path fill="none" stroke="#fff" style="stroke: var(--color2, #fff)" stroke-linejoin="round" stroke-linecap="round" stroke-miterlimit="4" stroke-width="2.4" d="M6.058 4.8h25.943l-4.8 14.4h-19.086"></path>
<path fill="none" stroke="#fff" style="stroke: var(--color2, #fff)" stroke-linejoin="round" stroke-linecap="round" stroke-miterlimit="4" stroke-width="2.4" d="M12.8 30.4c1.767 0 3.2-1.433 3.2-3.2s-1.433-3.2-3.2-3.2c-1.767 0-3.2 1.433-3.2 3.2s1.433 3.2 3.2 3.2z"></path>
<path fill="none" stroke="#fff" style="stroke: var(--color2, #fff)" stroke-linejoin="round" stroke-linecap="round" stroke-miterlimit="4" stroke-width="2.4" d="M25.6 30.4c1.767 0 3.2-1.433 3.2-3.2s-1.433-3.2-3.2-3.2c-1.767 0-3.2 1.433-3.2 3.2s1.433 3.2 3.2 3.2z"></path>
</symbol>
<symbol id="icon-heart" viewBox="0 0 36 32">
<path fill="none" stroke="#fff" style="stroke: var(--color2, #fff)" stroke-linejoin="round" stroke-linecap="round" stroke-miterlimit="4" stroke-width="2.6667" d="M4.145 16.084l13.633 14.138 13.633-14.138c1.516-1.572 2.367-3.703 2.367-5.926 0-4.628-3.618-8.381-8.081-8.381-2.143 0-4.199 0.883-5.714 2.455l-2.204 2.286-2.204-2.286c-1.516-1.572-3.571-2.455-5.714-2.455-4.463 0-8.081 3.752-8.081 8.381 0 2.223 0.851 4.354 2.367 5.926z"></path>
</symbol>
<symbol id="icon-logo" viewBox="0 0 61 32">
<path fill="none" stroke="#fff" style="stroke: var(--color2, #fff)" stroke-linejoin="miter" stroke-linecap="butt" stroke-miterlimit="10" stroke-width="0.6884" d="M14.671 14.071c1.503 0 2.721-1.194 2.721-2.667s-1.218-2.667-2.721-2.667-2.721 1.194-2.721 2.667c0 1.473 1.218 2.667 2.721 2.667z"></path>
<path fill="none" stroke="#fff" style="stroke: var(--color2, #fff)" stroke-linejoin="miter" stroke-linecap="butt" stroke-miterlimit="10" stroke-width="0.6884" d="M16.847 5.964c1.503 0 2.721-1.194 2.721-2.667s-1.218-2.667-2.721-2.667c-1.503 0-2.721 1.194-2.721 2.667s1.218 2.667 2.721 2.667z"></path>
<path fill="#fff" style="fill: var(--color2, #fff)" d="M16.953 3.591c0.022-0.001 0.043-0.007 0.062-0.017s0.036-0.024 0.049-0.040c0.267-0.352-0.072-0.457-0.072-0.457l-5.258 0.402c-0.025 0.003-0.051 0-0.074-0.008s-0.045-0.022-0.062-0.040c-0.017-0.018-0.029-0.040-0.035-0.063s-0.006-0.048-0-0.072c0.093-0.419 0.254-0.821 0.477-1.192 0.027-0.047 0.067-0.087 0.115-0.114s0.104-0.042 0.16-0.042c0.056 0 0.112 0.014 0.16 0.042s0.088 0.067 0.115 0.114l-0.002 0.413c-0.002 0.028 0.005 0.056 0.021 0.080 0.030 0.043 0.070 0.079 0.117 0.105 0.022 0.011 0.047 0.017 0.072 0.017s0.050-0.006 0.072-0.017 0.041-0.028 0.055-0.047c0.014-0.020 0.023-0.043 0.026-0.067 0.041-0.328 0.051-1.062-0.665-1.092-0.967-0.046-1.219 1.703-1.279 2.347-0.003 0.030 0.001 0.061 0.011 0.090s0.027 0.055 0.049 0.077c0.022 0.022 0.048 0.040 0.078 0.051s0.061 0.017 0.093 0.016h0.789c0.022 0 0.043 0.005 0.063 0.013s0.038 0.021 0.052 0.036c0.014 0.015 0.025 0.034 0.032 0.053s0.009 0.041 0.007 0.061l-0.369 3.793c-0.003 0.036-0.019 0.069-0.046 0.094s-0.062 0.039-0.1 0.041l-1.104 0.062c-0.023 0.001-0.047-0.003-0.069-0.012s-0.041-0.022-0.056-0.039c-0.016-0.017-0.027-0.037-0.033-0.058s-0.007-0.044-0.003-0.066c0.038-0.182 0.061-0.367 0.069-0.552 0-0.187-0.171-0.256-0.261-0.308-0.012-0.008-0.026-0.013-0.041-0.014s-0.029 0.001-0.043 0.006c-0.014 0.005-0.025 0.014-0.035 0.025s-0.016 0.024-0.019 0.037l-0.437 1.998c-0.006 0.023-0.005 0.048 0.002 0.071s0.019 0.044 0.036 0.062c0.051 0.050 0.12 0.081 0.194 0.087 0.035 0.003 0.069-0.005 0.099-0.023s0.051-0.045 0.063-0.077l0.18-0.492c0.009-0.027 0.027-0.051 0.050-0.068s0.051-0.029 0.081-0.032l1.313-0.125c0.024-0.002 0.048 0.001 0.071 0.009s0.043 0.021 0.059 0.039l2.812 2.95c0.014 0.015 0.032 0.028 0.052 0.036s0.041 0.013 0.063 0.013h0.106c0.033 0 0.064-0.010 0.091-0.028s0.046-0.044 0.056-0.074l1.334-3.779c0.009-0.024 0.010-0.050 0.006-0.075s-0.016-0.048-0.033-0.068l-3.086-3.54c-0.014-0.015-0.025-0.033-0.031-0.053s-0.008-0.040-0.005-0.060v-0.034c0.004-0.034 0.021-0.066 0.047-0.089s0.060-0.038 0.095-0.040l3.665-0.264zM15.566 8.48l-0.857 2.247c-0.009 0.024-0.025 0.045-0.045 0.062s-0.045 0.028-0.071 0.033c-0.026 0.005-0.053 0.003-0.079-0.004s-0.048-0.022-0.066-0.040l-1.898-1.967c-0.019-0.020-0.032-0.044-0.037-0.071s-0.004-0.054 0.006-0.079c0.009-0.025 0.026-0.048 0.047-0.065s0.048-0.029 0.075-0.033l2.743-0.423c0.021-0.002 0.043 0 0.064 0.007s0.039 0.017 0.056 0.030c0.016 0.014 0.029 0.030 0.038 0.049s0.014 0.039 0.014 0.060v0.143c0.007 0.017 0.011 0.034 0.010 0.052zM15.299 7.581l-2.803 0.423c-0.023 0.002-0.046-0-0.068-0.008s-0.042-0.019-0.058-0.035-0.029-0.035-0.037-0.056c-0.008-0.021-0.011-0.043-0.008-0.065l0.343-3.114c0.005-0.026 0.018-0.050 0.037-0.070s0.043-0.035 0.069-0.043c0.027-0.008 0.055-0.009 0.082-0.003s0.052 0.019 0.072 0.037l2.464 2.69c0.018 0.020 0.030 0.044 0.035 0.070s0.003 0.053-0.007 0.078c-0.009 0.025-0.025 0.047-0.047 0.064s-0.047 0.028-0.074 0.032z"></path>
<path fill="#f57520" style="fill: var(--color4, #f57520)" d="M46.15 26.822l1.181-3.003-2.68-1.872h3.427l1.096-2.975 0.893 3.029h3.283l-2.765 1.764 0.837 3.057-2.421-1.736z"></path>
<path fill="#fff" style="fill: var(--color2, #fff)" d="M32.018 31.841h3.44l9.568-31.688h-3.44l-9.568 31.688z"></path>
<path fill="#fff" style="fill: var(--color2, #fff)" d="M37.085 31.841l1.063-3.169 12.28 0c0.315 0 0.615 0.001 0.903-0.006 1.611-0.083 3.083-0.925 4.22-2.032 1.178-1.147 1.838-2.691 1.838-4.299 0-1.619-0.668-3.172-1.859-4.321-0.608-0.586-1.319-0.863-2.094-0.994-0.5-0.064-1.003-0.102-1.496-0.117-0.217-0.004-0.437-0.006-0.659-0.007-0.072-0-0.143-0.001-0.215-0.002h-9.666l0.938-2.87h4.753c0.848 0 1.35 0.009 1.787 0.016h0c0.723 0.012 1.266 0.021 2.904-0.016 0.861-0.020 1.427-0.046 1.93-0.176 0.814-0.291 1.56-0.751 2.18-1.355 1.103-1.075 1.721-2.521 1.722-4.029 0-1.517-0.606-3.169-1.722-4.246s-2.623-1.243-4.206-1.256h-5.907l0.688-2.81h4.253c0.34 0 0.613-0.003 0.849-0.006 0.807-0.009 1.194-0.013 2.403 0.125 0.168 0.019 0.321 0.049 0.463 0.088 1.424 0.239 2.735 0.738 3.8 1.766 1.726 1.666 2.667 3.991 2.678 6.338-0.011 2.332-0.972 4.568-2.678 6.232-0.218 0.213-0.447 0.398-0.686 0.56 0.161 0.118 0.318 0.249 0.47 0.396 1.843 1.778 2.882 4.178 2.894 6.683-0.011 2.489-1.037 4.875-2.859 6.65-1.169 1.139-2.607 1.945-4.175 2.39-0.881 0.295-1.886 0.465-3.034 0.465h-13.758z"></path>
<path fill="#fff" style="fill: var(--color2, #fff)" d="M0.625 0.153h3.377l8.067 26.725-1.251 4.962-10.194-31.688z"></path>
<path fill="#fff" style="fill: var(--color2, #fff)" d="M12.132 31.84h3.314l7.004-25.948 8.005 25.948 1.626-5.082-8.38-26.606h-3.127l-8.443 31.688z"></path>
</symbol>
<symbol id="icon-seach" viewBox="0 0 32 32">
<path fill="none" stroke="#fff" style="stroke: var(--color2, #fff)" stroke-linejoin="round" stroke-linecap="round" stroke-miterlimit="4" stroke-width="2.5263" d="M26.947 14.316c0 6.976-5.655 12.632-12.632 12.632s-12.632-5.655-12.632-12.632c0-6.976 5.655-12.632 12.632-12.632s12.632 5.655 12.632 12.632z"></path>
<path fill="none" stroke="#fff" style="stroke: var(--color2, #fff)" stroke-linejoin="round" stroke-linecap="round" stroke-miterlimit="4" stroke-width="2.5263" d="M30.316 30.316l-7.068-7.068"></path>
</symbol>
<symbol id="icon-user" viewBox="0 0 29 32">
<path fill="none" stroke="#fff" style="stroke: var(--color2, #fff)" stroke-linejoin="round" stroke-linecap="round" stroke-miterlimit="4" stroke-width="2.4" d="M20.8 20.8h-12.8c-3.535 0-6.4 2.865-6.4 6.4v3.2h25.6v-3.2c0-3.535-2.865-6.4-6.4-6.4z"></path>
<path fill="none" stroke="#fff" style="stroke: var(--color2, #fff)" stroke-linejoin="round" stroke-linecap="round" stroke-miterlimit="4" stroke-width="2.4" d="M14.4 14.4c3.535 0 6.4-2.865 6.4-6.4s-2.865-6.4-6.4-6.4c-3.535 0-6.4 2.865-6.4 6.4s2.865 6.4 6.4 6.4z"></path>
</symbol>
<symbol id="icon-tel1" viewBox="0 0 32 32">
<path fill="none" stroke="#f57520" style="stroke: var(--color4, #f57520)" stroke-linejoin="round" stroke-linecap="round" stroke-miterlimit="4" stroke-width="1.8462" d="M22.564 1.231h-13.128c-1.813 0-3.282 1.469-3.282 3.282v22.974c0 1.813 1.469 3.282 3.282 3.282h13.128c1.813 0 3.282-1.469 3.282-3.282v-22.974c0-1.813-1.469-3.282-3.282-3.282z"></path>
<path fill="none" stroke="#f57520" style="stroke: var(--color4, #f57520)" stroke-linejoin="round" stroke-linecap="round" stroke-miterlimit="4" stroke-width="1.8462" d="M16 25.863v-0.016"></path>
</symbol>
<symbol id="icon-navigation" viewBox="0 0 26 32">
<path fill="none" stroke="#f57520" style="stroke: var(--color4, #f57520)" stroke-linejoin="round" stroke-linecap="round" stroke-miterlimit="4" stroke-width="1.7778" d="M21.021 30.595l3.852-28.796-23.012 17.734 11.95 1.425 7.209 9.637z"></path>
</symbol>
<symbol id="icon-click" viewBox="0 0 33 32">
<path fill="#fff" style="fill: var(--color2, #fff)" d="M12.64 3.2c0.212 0 0.416 0.084 0.566 0.234s0.234 0.353 0.234 0.566v3.2c0 0.212-0.084 0.416-0.234 0.566s-0.353 0.234-0.566 0.234c-0.212 0-0.416-0.084-0.566-0.234s-0.234-0.354-0.234-0.566v-3.2c0-0.212 0.084-0.416 0.234-0.566s0.354-0.234 0.566-0.234zM6.416 5.776c0.074-0.074 0.163-0.134 0.26-0.174s0.201-0.061 0.307-0.061c0.105 0 0.209 0.021 0.307 0.061s0.185 0.099 0.26 0.174l2.262 2.264c0.076 0.074 0.137 0.162 0.179 0.26s0.064 0.203 0.065 0.309c0.001 0.106-0.019 0.212-0.060 0.31s-0.1 0.188-0.175 0.263c-0.075 0.075-0.164 0.134-0.263 0.175s-0.204 0.060-0.31 0.060c-0.106-0.001-0.211-0.023-0.309-0.065s-0.186-0.103-0.26-0.179l-2.262-2.262c-0.15-0.15-0.234-0.353-0.234-0.566s0.084-0.416 0.234-0.566l-0.002-0.002zM18.864 5.776c0.075 0.074 0.134 0.163 0.174 0.26s0.061 0.201 0.061 0.307c0 0.105-0.021 0.209-0.061 0.307s-0.099 0.185-0.174 0.26l-2.266 2.262c-0.074 0.076-0.162 0.137-0.26 0.179s-0.203 0.064-0.309 0.065-0.212-0.019-0.31-0.060c-0.098-0.040-0.188-0.1-0.263-0.175s-0.135-0.164-0.175-0.263c-0.040-0.098-0.061-0.204-0.060-0.31s0.023-0.211 0.065-0.309c0.042-0.098 0.103-0.186 0.179-0.26l2.262-2.262c0.15-0.15 0.354-0.234 0.566-0.234s0.416 0.084 0.566 0.234l0.003-0.002zM3.84 12c0-0.212 0.084-0.416 0.234-0.566s0.354-0.234 0.566-0.234h3.2c0.212 0 0.416 0.084 0.566 0.234s0.234 0.354 0.234 0.566c0 0.212-0.084 0.416-0.234 0.566s-0.354 0.234-0.566 0.234h-3.2c-0.212 0-0.416-0.084-0.566-0.234s-0.234-0.354-0.234-0.566zM14.464 11.68c-0.233-0.194-0.518-0.318-0.819-0.357s-0.608 0.009-0.883 0.137-0.508 0.333-0.671 0.589c-0.163 0.256-0.25 0.554-0.251 0.858v14.562c0 1.478 1.832 2.166 2.805 1.054l3.242-3.705c0.225-0.257 0.503-0.463 0.815-0.604s0.65-0.214 0.992-0.213h5.138c1.496 0 2.174-1.872 1.024-2.829l-11.39-9.491zM13.44 27.472v-14.565l11.39 9.493h-5.138c-0.57-0-1.134 0.122-1.653 0.358s-0.982 0.58-1.358 1.009l-3.242 3.706z"></path>
</symbol>
<symbol id="icon-email" viewBox="0 0 38 32">
<path fill="none" stroke="#f57520" style="stroke: var(--color4, #f57520)" stroke-linejoin="round" stroke-linecap="round" stroke-miterlimit="4" stroke-width="2.1818" d="M34.424 2.425h-31.030c-0.536 0-1.020 0.217-1.371 0.568s-0.568 0.836-0.568 1.371v23.273c0 1.071 0.868 1.939 1.939 1.939h31.030c1.071 0 1.939-0.868 1.939-1.939v-23.273c0-0.536-0.217-1.020-0.568-1.371s-0.836-0.568-1.371-0.568z"></path>
<path fill="none" stroke="#f57520" style="stroke: var(--color4, #f57520)" stroke-linejoin="round" stroke-linecap="round" stroke-miterlimit="4" stroke-width="2.1818" d="M2.023 2.993l14.144 14.144c1.515 1.515 3.971 1.515 5.485 0l14.144-14.144"></path>
</symbol>
<symbol id="icon-calendar" viewBox="0 0 30 32">
<path fill="none" stroke="#f57520" style="stroke: var(--color4, #f57520)" stroke-linejoin="round" stroke-linecap="round" stroke-miterlimit="4" stroke-width="1.8462" d="M1.641 14.359h26.256"></path>
<path fill="none" stroke="#f57520" style="stroke: var(--color4, #f57520)" stroke-linejoin="round" stroke-linecap="round" stroke-miterlimit="4" stroke-width="1.8462" d="M1.641 7.795v19.692c0 1.813 1.469 3.282 3.282 3.282h19.692c1.813 0 3.282-1.469 3.282-3.282v-19.692c0-1.813-1.469-3.282-3.282-3.282h-19.692c-1.813 0-3.282 1.469-3.282 3.282z"></path>
<path fill="none" stroke="#f57520" style="stroke: var(--color4, #f57520)" stroke-linejoin="round" stroke-linecap="round" stroke-miterlimit="4" stroke-width="1.8462" d="M19.692 1.231v6.564"></path>
<path fill="none" stroke="#f57520" style="stroke: var(--color4, #f57520)" stroke-linejoin="round" stroke-linecap="round" stroke-miterlimit="4" stroke-width="1.8462" d="M9.846 1.231v6.564"></path>
</symbol>
</defs>
</svg>
